<svg width="30" height="30" viewBox="0 0 30 30" fill="none" xmlns="http://www.w3.org/2000/svg">
<path d="M25.3125 4.92188H4.6875C4.25238 4.92188 3.83508 5.09473 3.5274 5.4024C3.21973 5.71008 3.04688 6.12738 3.04688 6.5625V23.4375C3.04688 23.8726 3.21973 24.2899 3.5274 24.5976C3.83508 24.9053 4.25238 25.0781 4.6875 25.0781H25.3125C25.7476 25.0781 26.1649 24.9053 26.4726 24.5976C26.7803 24.2899 26.9531 23.8726 26.9531 23.4375V6.5625C26.9531 6.12738 26.7803 5.71008 26.4726 5.4024C26.1649 5.09473 25.7476 4.92188 25.3125 4.92188ZM4.6875 6.32812H25.3125C25.3747 6.32812 25.4343 6.35282 25.4782 6.39677C25.5222 6.44073 25.5469 6.50034 25.5469 6.5625V19.1684L22.0934 15.7148C21.941 15.5625 21.7601 15.4416 21.5611 15.3592C21.362 15.2767 21.1487 15.2343 20.9332 15.2343C20.7177 15.2343 20.5044 15.2767 20.3053 15.3592C20.1063 15.4416 19.9254 15.5625 19.773 15.7148L17.2629 18.225L11.9414 12.9023C11.7891 12.75 11.6082 12.6291 11.4091 12.5467C11.2101 12.4642 10.9967 12.4218 10.7812 12.4218C10.5658 12.4218 10.3524 12.4642 10.1534 12.5467C9.95431 12.6291 9.77344 12.75 9.62109 12.9023L4.45312 18.0703V6.5625C4.45312 6.50034 4.47782 6.44073 4.52177 6.39677C4.56573 6.35282 4.62534 6.32812 4.6875 6.32812ZM4.45312 23.4375V20.059L10.6148 13.8973C10.6366 13.8753 10.6626 13.8579 10.6911 13.846C10.7197 13.8341 10.7503 13.8279 10.7812 13.8279C10.8122 13.8279 10.8428 13.8341 10.8714 13.846C10.8999 13.8579 10.9259 13.8753 10.9477 13.8973L20.7223 23.6719H4.6875C4.62534 23.6719 4.56573 23.6472 4.52177 23.6032C4.47782 23.5593 4.45312 23.4997 4.45312 23.4375ZM25.3125 23.6719H22.7109L18.2578 19.2188L20.7668 16.7086C20.7886 16.6868 20.8144 16.6695 20.8429 16.6577C20.8713 16.6459 20.9018 16.6399 20.9326 16.6399C20.9634 16.6399 20.9939 16.6459 21.0224 16.6577C21.0508 16.6695 21.0767 16.6868 21.0984 16.7086L25.5516 21.1617V23.4375C25.5516 23.4687 25.5454 23.4995 25.5333 23.5283C25.5212 23.557 25.5035 23.5831 25.4813 23.6049C25.459 23.6267 25.4326 23.6439 25.4036 23.6554C25.3747 23.6669 25.3437 23.6725 25.3125 23.6719ZM17.1094 11.7188C17.1094 11.487 17.1781 11.2604 17.3069 11.0677C17.4356 10.875 17.6187 10.7248 17.8328 10.6361C18.0469 10.5474 18.2825 10.5242 18.5099 10.5694C18.7372 10.6146 18.946 10.7262 19.1099 10.8901C19.2738 11.054 19.3854 11.2628 19.4306 11.4901C19.4758 11.7174 19.4526 11.9531 19.3639 12.1672C19.2752 12.3813 19.125 12.5644 18.9323 12.6931C18.7396 12.8219 18.513 12.8906 18.2812 12.8906C17.9704 12.8906 17.6724 12.7672 17.4526 12.5474C17.2328 12.3276 17.1094 12.0296 17.1094 11.7188Z" fill="#7B8EC8"/>
</svg>
